<?xml version="1.0" encoding="UTF-8"?> <svg xmlns="http://www.w3.org/2000/svg" width="200" height="200" viewBox="0 0 200 200" fill="none"> <rect width="200" height="200" fill="white" fill-opacity="0.01"></rect> <path d="M65.9142 36.483L4.06747 0.356411C2.79732 -0.379865 1.08751 0.0619008 0.354726 1.33811C-0.378056 2.66341 0.0616129 4.33229 1.33177 5.06857L63.1785 41.1952C63.6182 41.4406 64.0579 41.5879 64.5464 41.5879C65.4746 41.5879 66.4028 41.097 66.8913 40.2135C67.6729 38.9373 67.2333 37.2684 65.9142 36.483Z" transform="translate(49.9972 88.0244)" fill="#00D68B"></path> <path d="M1.36427 5.06858L37.0263 25.8806C37.466 26.1261 37.9056 26.2733 38.3942 26.2733C39.3224 26.2733 40.2505 25.7825 40.7391 24.8989C41.4718 23.5736 41.0322 21.9048 39.762 21.1685L4.09997 0.356393C2.82982 -0.379883 1.12001 0.0618827 0.387224 1.33809C-0.39441 2.66339 0.0452594 4.3323 1.36427 5.06858Z" transform="translate(41.8063 102.211)" fill="#00D68B"></path> <path d="M20.2375 9.82983L4.06747 0.356417C2.74846 -0.379859 1.0875 0.0619067 0.35472 1.33812C-0.378062 2.66342 0.061607 4.3323 1.33176 5.06857L17.5018 14.542C17.9415 14.7874 18.3811 14.9347 18.8697 14.9347C19.7978 14.9347 20.7261 14.4438 21.2146 13.5603C21.9474 12.2841 21.5077 10.6152 20.2375 9.82983Z" transform="translate(87.5156 128.864)" fill="#00D68B"></path> <path d="M66.1585 36.6303L4.06747 0.356405C2.79731 -0.379871 1.0875 0.0618948 0.35472 1.33811C-0.378062 2.6634 0.061607 4.33228 1.33176 5.06856L63.4228 41.3424C63.8625 41.5879 64.3021 41.7351 64.7906 41.7351C65.7188 41.7351 66.647 41.2443 67.1356 40.3607C67.9172 39.0354 67.4775 37.3666 66.1585 36.6303Z" transform="translate(25.9619 129.649)" fill="#00D68B"></path> <path d="M40.1692 21.4139L4.06747 0.356399C2.74846 -0.379877 1.0875 0.0618887 0.35472 1.3381C-0.378062 2.6634 0.061607 4.33231 1.33176 5.06858L37.4335 26.1261C37.8731 26.3715 38.3128 26.5187 38.8013 26.5187C39.7295 26.5187 40.6577 26.0279 41.1462 25.1444C41.879 23.8191 41.4394 22.1502 40.1692 21.4139Z" transform="translate(60.4027 130.287)" fill="#00D68B"></path> <path d="M1.36427 5.06857L17.0458 14.1984C17.4855 14.4438 17.9251 14.5911 18.4136 14.5911C19.3418 14.5911 20.27 14.1002 20.7586 13.2167C21.4913 11.8914 21.0517 10.2225 19.7815 9.48623L4.09997 0.356417C2.82982 -0.379859 1.12001 0.0619067 0.387224 1.33812C-0.39441 2.66342 0.0452594 4.3323 1.36427 5.06857Z" transform="translate(34.4784 114.875)" fill="#00D68B"></path> <path d="M134.559 9.03003C133.582 8.39192 132.654 7.70475 131.628 7.11573C119.61 0.0965648 105.638 -1.81776 92.204 1.76545C78.7697 5.34866 67.5337 13.9386 60.5478 26.0135L0.948218 129.043C-1.00587 132.381 0.166589 136.651 3.48853 138.615L81.31 184.067C82.4336 184.706 83.606 185 84.7785 185C87.1722 185 89.5171 183.773 90.8361 181.515L123.274 125.46C134.07 140.922 146.821 149.708 158.301 149.708C160.45 149.708 162.551 149.413 164.603 148.775C174.764 145.634 181.896 135.277 184.73 119.521C187.417 104.402 185.805 85.9954 180.235 67.6376C170.563 36.1741 152.194 13.3986 134.559 9.03003ZM86.0975 178.815C85.6578 179.552 84.7296 179.797 83.9968 179.355L6.1754 133.902C5.83344 133.706 5.58917 133.362 5.44262 132.97C5.34491 132.577 5.39376 132.135 5.58917 131.792L65.2865 28.7622C71.5395 17.9635 81.6031 10.2572 93.6207 7.06663C97.5777 6.03584 101.632 5.49591 105.589 5.49591C111.598 5.49591 117.509 6.67395 123.127 9.03003C122.785 9.1282 122.443 9.12821 122.101 9.22638C115.458 11.288 110.182 16.5891 106.518 24.1973C104.515 24.2464 102.463 24.4918 100.46 25.0318C93.865 26.7988 88.3935 30.971 84.9739 36.9103C81.5542 42.8006 80.626 49.7215 82.3847 56.2989C84.1434 62.9254 88.2958 68.423 94.2069 71.8589C97.3823 73.7241 100.9 74.804 104.466 75.1476C104.515 75.1476 104.515 75.1476 104.564 75.1476C105.345 75.2458 106.176 75.2949 106.957 75.2949C109.156 75.2949 111.354 75.0004 113.504 74.4113C120.099 72.6443 125.57 68.472 128.99 62.5328C136.024 50.3597 131.921 34.6524 119.757 27.5842C117.412 26.2098 114.871 25.2772 112.282 24.6882C115.164 19.4361 119.024 15.8038 123.665 14.3803C126.498 13.4968 129.527 13.5459 132.654 14.2331C141.447 20.565 147.7 29.6458 150.485 40.2481C153.66 52.3231 151.95 64.9379 145.746 75.7366L86.0975 178.815ZM107.446 69.7973C105.15 54.1392 106.176 40.0027 109.986 29.8421C112.429 30.2348 114.823 31.0201 117.07 32.3454C126.596 37.9411 129.869 50.2615 124.3 59.8331C121.613 64.4962 117.265 67.7849 112.136 69.1592C110.572 69.601 109.009 69.7483 107.446 69.7973ZM101.828 69.0611C100.118 68.6193 98.4571 67.9812 96.8938 67.0977C92.2528 64.398 88.9798 60.0294 87.6119 54.8755C86.244 49.6725 86.9768 44.2731 89.6637 39.61C92.3506 34.9469 96.6984 31.6582 101.828 30.2839C102.609 30.0875 103.44 29.9403 104.222 29.793C100.753 40.2972 99.7761 53.9429 101.828 69.0611ZM179.307 118.637C176.865 132.234 171.1 141.118 162.942 143.621C151.901 147.008 137.93 138.075 126.254 120.355L150.436 78.5345C157.422 66.4596 159.278 52.4212 155.761 38.9228C154.442 33.818 152.341 29.0567 149.654 24.6882C159.815 34.6034 169.244 50.5069 174.959 69.3065C180.284 86.8789 181.848 104.402 179.307 118.637Z" transform="translate(7 7)" fill="#E0E0E0"></path> </svg> 