<?xml version="1.0" encoding="UTF-8"?> <svg xmlns="http://www.w3.org/2000/svg" width="202" height="200" viewBox="0 0 202 200" fill="none"> <rect width="200" height="200" transform="translate(1)" fill="white" fill-opacity="0.01"></rect> <path d="M200.128 42.2968L102.123 0.222615C101.374 -0.074205 100.551 -0.074205 99.8021 0.222615L1.7969 42.2226C0.748721 42.6679 0 43.7067 0 44.894C0 46.0813 0.673851 47.1202 1.7969 47.5654L21.8621 56.1732V93.5725C17.3699 94.834 14.0756 98.9153 14.0756 103.739C14.0756 108.562 17.3699 112.569 21.7872 113.905C21.4129 118.283 19.9155 125.184 17.2202 130.304C11.7546 140.693 7.78653 148.187 13.0274 153.827C14.5997 155.534 16.5464 156.35 18.5679 156.35C19.5412 156.35 20.5144 156.127 21.4877 155.756C27.9266 153.233 32.7183 142.919 32.5686 131.788C32.4937 125.555 30.1728 117.838 28.6754 113.534C32.6435 111.975 35.4885 108.191 35.4885 103.664C35.4885 98.8411 32.1942 94.7598 27.702 93.4983V58.6219L38.2587 63.1485V108.265C38.2587 112.495 40.1305 116.428 43.874 119.767C54.3558 129.265 78.3892 133.495 101.15 133.495C106.391 133.495 111.632 133.272 116.573 132.827C118.145 132.679 119.343 131.269 119.193 129.71C119.044 128.152 117.621 126.965 116.049 127.113C87.2987 129.71 57.9496 124.739 47.8421 115.537C45.2965 113.237 44.0986 110.862 44.0986 108.265V65.7456L99.8021 89.6396C100.176 89.7881 100.551 89.8623 100.925 89.8623C101.3 89.8623 101.749 89.7881 102.123 89.6396L157.827 65.7456V108.339C157.827 111.827 155.506 115.018 151.013 117.912C149.666 118.802 149.216 120.583 150.115 121.919C150.639 122.809 151.612 123.254 152.586 123.254C153.11 123.254 153.634 123.106 154.158 122.809C162.019 117.838 163.741 112.198 163.741 108.339V63.2227L200.203 47.5654C201.251 47.1202 202 46.0813 202 44.894C201.85 43.7809 201.176 42.7421 200.128 42.2968ZM19.3166 150.414C18.6427 150.636 18.1186 150.71 17.3699 149.894C15.0489 147.371 17.6694 142.103 22.4611 132.975C23.8836 130.304 24.9318 127.336 25.7554 124.442C26.3544 127.039 26.7287 129.636 26.7287 131.862C26.8035 141.88 22.3862 149.226 19.3166 150.414ZM29.6486 103.739C29.6486 106.41 27.4774 108.562 24.782 108.562C22.0867 108.562 19.9155 106.41 19.9155 103.739C19.9155 101.067 22.0867 98.9153 24.782 98.9153C27.4774 98.9153 29.6486 101.067 29.6486 103.739ZM159.549 58.6962L100.925 83.8516L42.3017 58.6962L35.788 55.8764L101.3 47.788C102.872 47.5654 104.07 46.1555 103.845 44.523C103.62 42.9647 102.198 41.7774 100.551 42L25.1564 51.2757L10.2572 44.894L100.85 6.0106L191.443 44.894L159.549 58.6962Z" fill="#E0E0E0"></path> <path d="M25.0804 92.7216C25.0055 92.7216 24.9307 92.7216 24.781 92.7216C23.583 92.5732 22.5348 91.7569 22.2354 90.5696L0.0737784 3.60137C-0.150832 2.63671 0.148649 1.52364 0.822481 0.85579C1.57118 0.11374 2.61933 -0.18308 3.59265 0.11374L91.2657 22.1526C92.4637 22.4494 93.3621 23.4883 93.437 24.6756C93.5867 25.8629 92.9129 27.0502 91.7899 27.5696L64.4622 40.3328L92.6134 68.2339C93.1375 68.7534 93.437 69.4954 93.437 70.3117C93.437 71.0537 93.1375 71.7958 92.6134 72.3894L72.8477 91.9795C71.7246 93.0926 69.8528 93.0926 68.7298 91.9795L40.5037 64.0042L27.626 91.1633C27.2516 92.0537 26.2034 92.7216 25.0804 92.7216ZM39.6801 55.9901C40.4288 55.9901 41.1775 56.2869 41.7765 56.8064L70.901 85.6721L86.474 70.2375L57.4244 41.4459C56.7506 40.7781 56.4511 39.8134 56.6008 38.923C56.7506 37.9583 57.3495 37.2162 58.248 36.771L81.9818 25.7145L6.96181 6.8664L25.904 81.294L37.0596 57.6968C37.434 56.8064 38.2576 56.2127 39.2309 56.0643C39.3806 55.9901 39.5303 55.9901 39.6801 55.9901Z" transform="translate(108.338 107.186)" fill="#00D68B"></path> </svg> 