<?xml version="1.0" encoding="UTF-8"?> <svg xmlns="http://www.w3.org/2000/svg" width="200" height="200" viewBox="0 0 200 200" fill="none"> <rect width="200" height="200" fill="white" fill-opacity="0.01"></rect> <path d="M2.89318 1.13196e-06C1.26113 1.13196e-06 -1.81113e-05 1.26113 -1.81113e-05 2.89318V10.0148C-1.81113e-05 11.6469 1.26113 12.908 2.89318 12.908C4.52522 12.908 5.78637 11.6469 5.78637 10.0148V2.89318C5.78637 1.26113 4.45104 1.13196e-06 2.89318 1.13196e-06Z" transform="translate(76.2864 78.5615)" fill="#E0E0E0"></path> <path d="M2.89316 1.13196e-06C1.26111 1.13196e-06 9.05566e-06 1.26113 9.05566e-06 2.89318V10.0148C9.05566e-06 11.6469 1.26111 12.908 2.89316 12.908C4.5252 12.908 5.78635 11.6469 5.78635 10.0148V2.89318C5.78635 1.26113 4.45102 1.13196e-06 2.89316 1.13196e-06Z" transform="translate(117.904 78.5615)" fill="#E0E0E0"></path> <path d="M108.754 47.997C108.754 19.2878 86.6469 0 53.7834 0C21.5875 0 0 19.2878 0 47.997C0 60.089 3.63503 71.8101 11.7953 86.0534C12.0178 95.4006 15.3561 104.377 21.4392 111.573C22.0327 112.24 22.8487 112.611 23.6647 112.611C24.3324 112.611 25 112.389 25.5193 111.944C26.7062 110.905 26.8546 109.05 25.8902 107.863C20.549 101.558 17.5816 93.546 17.5816 85.3116V62.1662C17.5816 56.9733 18.7685 51.7804 20.9941 47.1068C33.3086 54.822 45.3264 57.9377 58.6795 57.0475C59.6439 56.9733 60.5341 56.454 60.9792 55.5638C61.4243 54.7478 61.4985 53.7092 61.0534 52.819L56.7507 44.2136C66.3947 47.8487 77.1513 50.0742 86.1276 46.2166C88.6498 51.1128 90.0594 56.6024 90.0594 62.092V85.3116C90.0594 93.546 87.092 101.558 81.7507 107.863C80.7122 109.05 80.8605 110.905 82.1217 111.944C82.641 112.389 83.3086 112.611 83.9763 112.611C84.7923 112.611 85.6083 112.24 86.2018 111.573C92.2849 104.451 95.6231 95.4006 95.8457 86.1276C103.561 73.4421 108.754 62.092 108.754 47.997ZM51.7804 35.9792C50.6676 35.4599 49.3324 35.7567 48.5163 36.6469C47.7003 37.5371 47.4778 38.8724 47.997 39.9852L53.7834 51.4837C42.5074 51.4837 32.3442 47.997 21.5134 40.6528C20.8457 40.2077 20.0297 40.0593 19.2878 40.2077C18.546 40.3561 17.8042 40.8754 17.4332 41.543C13.724 47.7745 11.7211 54.9703 11.7211 62.2404V73.4421C7.64094 64.3917 5.78634 56.3056 5.78634 48.1454C5.78634 22.4777 24.6291 5.93472 53.7834 5.93472C78.2641 5.93472 102.893 18.9911 102.893 48.1454C102.893 57.6409 100.223 65.9496 95.8457 74.4807V62.1662C95.8457 54.6736 93.7685 47.4036 89.911 41.0237C89.7626 40.8012 89.6142 40.6528 89.4659 40.5044C89.3917 40.4303 89.3175 40.2819 89.1691 40.2077C88.9466 40.0593 88.724 39.9852 88.5015 39.911C88.3531 39.8368 88.2789 39.7626 88.2048 39.7626C88.0564 39.6884 87.908 39.7626 87.6855 39.7626C87.4629 39.7626 87.2404 39.6884 87.092 39.7626C86.9436 39.7626 86.8694 39.8368 86.7952 39.911C86.5727 39.9852 86.276 40.0593 86.0534 40.1335C78.4866 44.362 68.0267 43.1009 51.7804 35.9792Z" transform="translate(46.1677)" fill="#E0E0E0"></path> <path d="M162.737 3.41247C160.957 1.26113 158.286 0 155.467 0H9.39919C6.65438 0 3.98375 1.18694 2.20333 3.33828C0.422917 5.48961 -0.318914 8.23442 0.12619 10.9792L12.8858 85.905C13.6277 90.1335 17.2627 93.1751 21.4912 93.1751H141.372C145.527 93.1751 149.162 90.2077 149.978 86.1276L164.666 11.2018C165.26 8.45698 164.518 5.63799 162.737 3.41247ZM144.266 85.0148C143.969 86.4243 142.782 87.3887 141.372 87.3887H21.4912C20.0817 87.3887 18.8205 86.3501 18.598 84.9407L5.83837 10.0148C5.69 8.97626 5.98672 7.93769 6.65437 7.12167C7.32203 6.30564 8.36061 5.86053 9.39919 5.86053H155.467C156.58 5.86053 157.545 6.30564 158.212 7.19584C158.88 8.01187 159.177 9.12463 158.954 10.1632L144.266 85.0148Z" transform="translate(18 106.825)" fill="#00D68B"></path> <path d="M8.8279 -4.52783e-06C3.93176 -4.52783e-06 -9.05566e-06 3.93175 -9.05566e-06 8.8279C-9.05566e-06 13.724 3.93176 17.6558 8.8279 17.6558C13.724 17.6558 17.6558 13.724 17.6558 8.8279C17.6558 4.00594 13.724 -4.52783e-06 8.8279 -4.52783e-06ZM8.8279 11.9436C7.12167 11.9436 5.78633 10.6083 5.78633 8.90207C5.78633 7.19584 7.12167 5.86054 8.8279 5.86054C10.5341 5.86054 11.8694 7.19584 11.8694 8.90207C11.8694 10.5341 10.5341 11.9436 8.8279 11.9436Z" transform="translate(92.0134 145.327)" fill="#00D68B"></path> </svg> 