<svg id="Layer_1" data-name="Layer 1" xmlns="http://www.w3.org/2000/svg" viewBox="0 0 283.46 283.46"><defs><style>.cls-1{fill:#fff;}</style></defs><title>School_21_logo</title><path class="cls-1" d="M236.09,77.21h0a8.24,8.24,0,0,1-2.41-5.83V44.59a7.51,7.51,0,0,0-7.51-7.51H201.75a7.51,7.51,0,0,0-7.51,7.51V69a7.51,7.51,0,0,0,7.51,7.51h26.78a8.24,8.24,0,0,1,5.83,2.41h0a8.24,8.24,0,0,1,2.41,5.83V239.17a7.51,7.51,0,0,0,7.51,7.51h24.41a7.51,7.51,0,0,0,7.51-7.51v-152a7.51,7.51,0,0,0-7.51-7.51H241.92A8.24,8.24,0,0,1,236.09,77.21Z"/><path class="cls-1" d="M52.67,164l0,0a8.24,8.24,0,0,1,5.82-2.4h66.26a7.48,7.48,0,0,0,7.48-7.48V127.27a8.15,8.15,0,0,1,2.4-5.78l0,0a8.25,8.25,0,0,1,5.82-2.4h26.82a7.48,7.48,0,0,0,7.48-7.48V87.1a7.48,7.48,0,0,0-7.48-7.48H140.5a8.25,8.25,0,0,1-8.24-8.24V44.55a7.48,7.48,0,0,0-7.48-7.48H18.44a7.61,7.61,0,0,0-7.61,7.61V68.91a7.61,7.61,0,0,0,7.61,7.61H127.11a8.26,8.26,0,0,1,8.26,8.26v29.18a8.2,8.2,0,0,1-2.41,5.81l0,0a8.24,8.24,0,0,1-5.81,2.4H60.86a7.48,7.48,0,0,0-7.48,7.48V156.5a8.2,8.2,0,0,1-2.4,5.8l0,0a8.2,8.2,0,0,1-5.8,2.4H18.31a7.48,7.48,0,0,0-7.48,7.48v24.48a7.48,7.48,0,0,0,7.48,7.48H45.18a8.2,8.2,0,0,1,5.8,2.4h0a8.2,8.2,0,0,1,2.4,5.8V239.2a7.48,7.48,0,0,0,7.48,7.48H167.2a7.61,7.61,0,0,0,7.61-7.61V214.85a7.61,7.61,0,0,0-7.61-7.61H58.52a8.25,8.25,0,0,1-5.82-2.4l0,0a8.15,8.15,0,0,1-2.4-5.78V169.82A8.15,8.15,0,0,1,52.67,164Z"/><path d="M263.77,109.1l0,0a1,1,0,0,1-.67.28h-3.73a1,1,0,0,1-.67-.28l0,0a1,1,0,0,1-.28-.67V90.17a1,1,0,0,0-1-1h-3a1,1,0,0,0-1,1v18.26a1,1,0,0,1-.28.67l0,0a1,1,0,0,1-.67.28h-3.73a1,1,0,0,1-.67-.28l0,0a1,1,0,0,1-.28-.68V90.17a1,1,0,0,0-1-1h-3a1,1,0,0,0-1,1v17.92a1,1,0,0,0,1,1H247a1,1,0,0,1,.67.28l0,0a1,1,0,0,1,.28.68v3.39a1,1,0,0,0,1,1h3a1,1,0,0,0,1-1V110a1,1,0,0,1,.28-.68l0,0A1,1,0,0,1,254,109h3.73a1,1,0,0,1,.68.28l0,0a1,1,0,0,1,.28.67v3.39a1,1,0,0,0,1,1h3a1,1,0,0,0,1-1V110a1,1,0,0,1,.28-.68l0,0a1,1,0,0,1,.67-.28h3.39a1,1,0,0,0,1-1V90.17a1,1,0,0,0-1-1h-3a1,1,0,0,0-1,1v18.26A1,1,0,0,1,263.77,109.1Z"/><path d="M258.31,156.35V152.9a.91.91,0,0,0-.91-.91h-3.13a.91.91,0,0,0-.91.91v3.45a.91.91,0,0,1-.27.65l-.07.07a.91.91,0,0,1-.65.27h-3.45a.91.91,0,0,0-.91.91v13a.91.91,0,0,0,.91.91h3.45a.91.91,0,0,1,.65.27l.07.07a.91.91,0,0,1,.27.65v3.45a.91.91,0,0,0,.91.91h3.13a.91.91,0,0,0,.91-.91v-3.45a.91.91,0,0,1,.27-.65l.07-.07a.91.91,0,0,1,.65-.27h3.45a.91.91,0,0,0,.91-.91v-13a.91.91,0,0,0-.91-.91h-3.45a.91.91,0,0,1-.65-.27l-.07-.07A.91.91,0,0,1,258.31,156.35Zm.12,15.9-.07.07a.91.91,0,0,1-.65.27h-3.77a.91.91,0,0,1-.65-.27l-.07-.07a.91.91,0,0,1-.27-.65V157.93a.91.91,0,0,1,.27-.65l.07-.07a.91.91,0,0,1,.65-.27h3.77a.91.91,0,0,1,.65.27l.07.07a.91.91,0,0,1,.27.65V171.6A.91.91,0,0,1,258.43,172.25Z"/><path d="M258.25,130.17l-.09.09a.89.89,0,0,1-.63.26H254a.89.89,0,0,1-.89-.89v-8.14a.89.89,0,0,0-.89-.89h-3.19a.89.89,0,0,0-.89.89v23.4a.89.89,0,0,0,.89.89h3.19a.89.89,0,0,0,.89-.89v-8.53a.89.89,0,0,1,.89-.89h3.49a.89.89,0,0,1,.63.26l.09.09a.89.89,0,0,1,.26.63v8.45a.89.89,0,0,0,.89.89h3.19a.89.89,0,0,0,.89-.89v-8.14a.89.89,0,0,0-.89-.89h-3.49a.89.89,0,0,1-.63-.26l-.09-.09a.89.89,0,0,1-.26-.63V131.1a.89.89,0,0,1,.26-.63l.09-.09a.89.89,0,0,1,.63-.26h3.49a.89.89,0,0,0,.89-.89v-7.75a.89.89,0,0,0-.89-.89h-3.19a.89.89,0,0,0-.89.89v8.06A.89.89,0,0,1,258.25,130.17Z"/><path d="M258.31,188.1v-3.37a1,1,0,0,0-1-1h-3a1,1,0,0,0-1,1v3.37a1,1,0,0,1-.28.68l0,0a1,1,0,0,1-.68.28H249a1,1,0,0,0-1,1v18.28a1,1,0,0,0,1,1h3a1,1,0,0,0,1-1V189.72a1,1,0,0,1,.28-.68l0,0a1,1,0,0,1,.68-.28h3.72a1,1,0,0,1,.68.28l0,0a1,1,0,0,1,.28.68v18.63a1,1,0,0,0,1,1h3a1,1,0,0,0,1-1V190.07a1,1,0,0,0-1-1h-3.38a1,1,0,0,1-.68-.28l0,0A1,1,0,0,1,258.31,188.1Z"/><path d="M258.64,220.6l-.05-.05a.93.93,0,0,1-.27-.66v-3.42a.93.93,0,0,0-.93-.93h-3.09a.93.93,0,0,0-.93.93v3.42a.93.93,0,0,1-.27.66l-.05.05a.93.93,0,0,1-.66.27h-3.43a.93.93,0,0,0-.93.93v18.35a.93.93,0,0,0,.93.93H252a.93.93,0,0,0,.93-.93v-9.37h0V226l.12.12a.93.93,0,0,1,.27.66v3.42a.93.93,0,0,0,.93.93h3.09a.93.93,0,0,0,.93-.93v-3.41a.93.93,0,0,1,.27-.66l.12-.12v14.09a.93.93,0,0,0,.93.93h3.09a.93.93,0,0,0,.93-.93V221.81a.93.93,0,0,0-.93-.93H259.3A.93.93,0,0,1,258.64,220.6Zm-.21,5.3,0,0a.93.93,0,0,1-.66.27H254a.93.93,0,0,1-.66-.27l-.06-.06a.93.93,0,0,1-.27-.66v-3.74a.93.93,0,0,1,.27-.66l.06-.06a.93.93,0,0,1,.66-.27h3.75a.93.93,0,0,1,.66.27l.06.06a.93.93,0,0,1,.27.66v3.76A.93.93,0,0,1,258.43,225.9Z"/></svg>