<?xml version="1.0" encoding="UTF-8"?>
<svg xmlns="http://www.w3.org/2000/svg" width="300" height="300" viewBox="0 0 300 300" fill="none">
  <circle cx="150" cy="150" r="150" fill="white"></circle>
  <circle cx="150" cy="150" r="147.5" stroke="#E0E0E0" stroke-width="5"></circle>
  <path d="M24.7641 49.5283C11.0787 49.5283 0 38.4496 0 24.7641C0 11.0787 11.0787 0 24.7641 0C38.4495 0 49.5282 11.0787 49.5282 24.7641C49.6097 38.4496 38.4495 49.5283 24.7641 49.5283ZM24.7641 6.35399C14.5815 6.35399 6.35395 14.5815 6.35395 24.7641C6.35395 34.9467 14.5815 43.1743 24.7641 43.1743C34.9467 43.1743 43.1743 34.9467 43.1743 24.7641C43.2557 14.663 34.9467 6.35399 24.7641 6.35399Z"
        transform="translate(125.576 110.864)" fill="#00D68B"></path>
  <path d="M106.469 132.13C104.84 132.13 103.211 132.455 101.663 132.944C102.559 124.309 102.967 115.349 102.967 106.306C102.967 53.9271 71.8485 11.3231 65.0872 2.76967C64.9243 2.60675 64.7614 2.36241 64.5985 2.19948C64.4355 1.9551 64.3541 1.87356 64.1912 1.71064C63.9468 1.3848 63.7839 1.22191 63.7024 1.14045C63.1322 0.407304 62.2361 -1.98879e-05 61.2586 -1.98879e-05C60.3625 -1.98879e-05 59.5479 0.407324 58.9777 1.05901C58.9777 1.05901 58.8962 1.14045 58.8148 1.14045C57.1855 3.09551 19.6321 48.8765 19.6321 106.388C19.6321 115.511 20.1208 124.472 20.9354 133.026C19.3877 132.537 17.7585 132.211 16.1293 132.211C7.25002 132.211 -1.24299e-06 139.461 -1.24299e-06 148.34V216.442C-1.24299e-06 218.234 1.38483 219.618 3.17697 219.618H29.0001C30.7922 219.618 32.177 218.234 32.177 216.442V183.206C34.458 188.826 36.9018 193.795 39.6715 198.031C40.2417 198.927 41.2192 199.498 42.3597 199.498H45.1293V216.523C45.1293 218.315 46.5142 219.7 48.3063 219.7H74.1294C75.9215 219.7 77.3064 218.315 77.3064 216.523V199.498H80.076C81.135 199.498 82.1126 198.927 82.7642 198.031C85.5339 193.877 87.9777 188.826 90.2586 183.206V216.442C90.2586 218.234 91.6435 219.618 93.4356 219.618H119.259C121.051 219.618 122.436 218.234 122.436 216.442V148.34C122.599 139.38 115.349 132.13 106.469 132.13ZM61.34 8.30905C65.9018 14.4186 75.7586 28.9186 83.9862 48.3063H38.6939C46.9215 28.9186 56.8597 14.4186 61.34 8.30905ZM25.986 213.183H6.51687V148.259C6.51687 142.882 10.9158 138.565 16.2107 138.565C18.2472 138.565 20.2023 139.217 21.8315 140.439C22.8905 148.34 24.2753 155.835 25.9046 162.84V213.183H25.986ZM71.1153 213.183H51.6462V148.259C51.6462 142.882 56.0451 138.565 61.34 138.565C66.7165 138.565 71.0339 142.964 71.0339 148.259V213.183H71.1153ZM78.5283 192.981H77.4693V148.259C77.4693 139.38 70.2193 132.13 61.34 132.13C52.4608 132.13 45.2108 139.38 45.2108 148.259V192.981H44.1518C32.9102 174.815 25.986 141.905 25.986 106.225C25.986 87.4075 30.3849 69.8119 36.0872 54.6602H86.43C92.1323 69.8119 96.5311 87.489 96.5311 106.225C96.6126 141.905 89.6884 174.896 78.5283 192.981ZM116.245 213.183H96.7755V162.759C98.4862 155.753 99.871 148.259 100.849 140.357C102.478 139.135 104.433 138.483 106.469 138.483C111.846 138.483 116.163 142.882 116.163 148.177V213.183H116.245Z"
        transform="translate(89 36)" fill="#E0E0E0"></path>
</svg>
