<?xml version="1.0" encoding="UTF-8"?>
<svg xmlns="http://www.w3.org/2000/svg" width="300" height="300" viewBox="0 0 300 300" fill="none">
  <circle cx="150" cy="150" r="150" fill="white"></circle>
  <circle cx="150" cy="150" r="147.5" stroke="#E0E0E0" stroke-width="5"></circle>
  <path d="M24.7509 0.799142L10.1812 14.9774L5.03034 9.02695C4.00016 7.85155 2.16056 7.70463 0.983214 8.7331C-0.194132 9.76158 -0.341229 11.5981 0.688949 12.7735L7.82657 21.0014C8.34166 21.5891 9.07754 21.9564 9.88696 21.9564C9.96055 21.9564 9.96051 21.9564 10.0341 21.9564C10.7699 21.9564 11.5057 21.6625 12.0208 21.1483L28.7981 4.83958C29.9018 3.73764 29.9754 1.90108 28.8716 0.799142C27.7679 -0.229334 25.9283 -0.302797 24.7509 0.799142Z"
        transform="translate(90.9216 102.8)" fill="#00D68B"></path>
  <path d="M24.7509 0.826456L10.1812 15.0047L5.03034 9.05426C4.00016 7.87886 2.16056 7.73194 0.983214 8.76041C-0.194132 9.78889 -0.341229 11.6255 0.688949 12.8009L7.82657 21.0287C8.34166 21.6164 9.07754 21.9837 9.88696 21.9837C9.96055 21.9837 9.96051 21.9837 10.0341 21.9837C10.7699 21.9837 11.5057 21.6898 12.0208 21.1756L28.7981 4.8669C29.9018 3.76496 29.9754 1.9284 28.8716 0.826456C27.7679 -0.275482 25.9283 -0.275482 24.7509 0.826456Z"
        transform="translate(90.9216 134.874)" fill="#00D68B"></path>
  <path d="M24.7509 0.82645L10.1812 15.0047L5.03034 9.05427C4.00016 7.87887 2.16056 7.73194 0.983214 8.76041C-0.194132 9.78889 -0.341229 11.6255 0.688949 12.8009L7.82657 21.0287C8.34166 21.6164 9.07754 21.9837 9.88696 21.9837C9.96055 21.9837 9.96051 21.9837 10.0341 21.9837C10.7699 21.9837 11.5057 21.6898 12.0208 21.1756L28.7981 4.86689C29.9018 3.76495 29.9754 1.92839 28.8716 0.82645C27.7679 -0.275489 25.9283 -0.275489 24.7509 0.82645Z"
        transform="translate(90.9216 166.907)" fill="#00D68B"></path>
  <path d="M2.86975 5.73008H47.9769C49.5957 5.73008 50.8467 4.48122 50.8467 2.86504C50.8467 1.24887 49.5957 -2.2419e-06 47.9769 -2.2419e-06H2.86975C1.25089 -2.2419e-06 3.59298e-05 1.24887 3.59298e-05 2.86504C3.59298e-05 4.40776 1.32448 5.73008 2.86975 5.73008Z"
        transform="translate(124.723 151.422)" fill="#00D68B"></path>
  <path d="M23.3261 5.73008C24.945 5.73008 26.1959 4.48122 26.1959 2.86504C26.1959 1.24887 24.945 -2.2419e-06 23.3261 -2.2419e-06H2.86982C1.25097 -2.2419e-06 1.79649e-05 1.24887 1.79649e-05 2.86504C1.79649e-05 4.48122 1.25097 5.73008 2.86982 5.73008H23.3261Z"
        transform="translate(182.561 151.422)" fill="#00D68B"></path>
  <path d="M81.4576 -4.4838e-06H2.86974C1.25089 -4.4838e-06 3.59297e-05 1.24887 3.59297e-05 2.86504C3.59297e-05 4.48122 1.25089 5.73008 2.86974 5.73008H81.4576C83.0765 5.73008 84.3274 4.48122 84.3274 2.86504C84.3274 1.24887 83.0765 -4.4838e-06 81.4576 -4.4838e-06Z"
        transform="translate(124.723 184.26)" fill="#00D68B"></path>
  <path d="M48.4919 -2.2419e-06H2.86978C1.25093 -2.2419e-06 -1.79649e-05 1.24887 -1.79649e-05 2.86504C-1.79649e-05 4.48122 1.25093 5.73008 2.86978 5.73008H48.5655C50.1843 5.73008 51.4353 4.48122 51.4353 2.86504C51.3617 1.24887 50.1108 -2.2419e-06 48.4919 -2.2419e-06Z"
        transform="translate(157.689 176.77)" fill="#00D68B"></path>
  <path d="M2.86975 5.73008H22.6639C24.2827 5.73008 25.5337 4.48122 25.5337 2.86504C25.5337 1.24887 24.2827 -4.4838e-06 22.6639 -4.4838e-06H2.86975C1.25089 -4.4838e-06 3.59298e-05 1.24887 3.59298e-05 2.86504C3.59298e-05 4.48122 1.32448 5.73008 2.86975 5.73008Z"
        transform="translate(124.723 176.547)" fill="#00D68B"></path>
  <path d="M2.86975 5.73008H47.9769C49.5957 5.73008 50.8467 4.48121 50.8467 2.86504C50.8467 1.24886 49.5957 2.2419e-06 47.9769 2.2419e-06H2.86975C1.25089 2.2419e-06 3.59298e-05 1.24886 3.59298e-05 2.86504C3.59298e-05 4.48121 1.32448 5.73008 2.86975 5.73008Z"
        transform="translate(124.723 109.622)" fill="#00D68B"></path>
  <path d="M2.86982 5.73008H23.3261C24.945 5.73008 26.1959 4.48121 26.1959 2.86504C26.1959 1.24886 24.945 2.2419e-06 23.3261 2.2419e-06H2.86982C1.25097 2.2419e-06 1.79649e-05 1.24886 1.79649e-05 2.86504C1.79649e-05 4.48121 1.25097 5.73008 2.86982 5.73008Z"
        transform="translate(182.561 109.622)" fill="#00D68B"></path>
  <path d="M81.4576 0H2.86974C1.25089 0 3.59297e-05 1.24886 3.59297e-05 2.86504C3.59297e-05 4.48121 1.25089 5.73008 2.86974 5.73008H81.4576C83.0765 5.73008 84.3274 4.48121 84.3274 2.86504C84.3274 1.32232 83.0765 0 81.4576 0Z"
        transform="translate(124.723 142.462)" fill="#00D68B"></path>
  <path d="M48.4919 0H2.86978C1.25093 0 -1.79649e-05 1.24886 -1.79649e-05 2.86504C-1.79649e-05 4.48122 1.25093 5.73008 2.86978 5.73008H48.5655C50.1843 5.73008 51.4353 4.48122 51.4353 2.86504C51.4353 1.24886 50.1108 0 48.4919 0Z"
        transform="translate(157.689 118.22)" fill="#00D68B"></path>
  <path d="M2.86975 5.73008H22.6639C24.2827 5.73008 25.5337 4.48122 25.5337 2.86504C25.5337 1.24886 24.2827 -2.2419e-06 22.6639 -2.2419e-06H2.86975C1.25089 -2.2419e-06 3.59298e-05 1.24886 3.59298e-05 2.86504C3.59298e-05 4.48122 1.32448 5.73008 2.86975 5.73008Z"
        transform="translate(124.723 117.997)" fill="#00D68B"></path>
  <path d="M166.374 13.3702H91.833V2.86504C91.833 1.24886 90.582 0 88.9632 0C87.3443 0 86.0934 1.24886 86.0934 2.86504V13.3702H11.5527C5.15091 13.3702 -3.59298e-05 18.586 -3.59298e-05 24.9038V27.1812C-3.59298e-05 33.4989 5.15091 38.7148 11.5527 38.7148V155.006C11.5527 156.622 12.8037 157.871 14.4225 157.871H86.0934V170.139L63.0616 193.133C61.9579 194.235 61.9579 196.072 63.0616 197.174C64.1654 198.275 66.005 198.275 67.1087 197.174L88.9632 175.355L110.818 197.174C111.406 197.761 112.142 197.982 112.878 197.982C113.614 197.982 114.35 197.688 114.938 197.174C116.042 196.072 116.042 194.235 114.938 193.133L91.9066 170.139V157.871H163.578C165.196 157.871 166.447 156.622 166.447 155.006V38.7148C172.776 38.7148 178 33.4989 178 27.1812V24.9038C177.926 18.5126 172.776 13.3702 166.374 13.3702ZM160.708 152.141H17.3659V38.7148H160.708V152.141ZM172.187 27.1812C172.187 30.4135 169.611 32.9847 166.374 32.9847H163.578H14.4961H11.6999C8.46216 32.9847 5.88669 30.4135 5.88669 27.1812V24.9038C5.88669 21.6715 8.46216 19.1003 11.6999 19.1003H166.447C169.685 19.1003 172.26 21.6715 172.26 24.9038V27.1812H172.187Z"
        transform="translate(61 51)" fill="#E0E0E0"></path>
</svg>
